<svg xmlns="http://www.w3.org/2000/svg" xmlns:xlink="http://www.w3.org/1999/xlink" width="500" zoomAndPan="magnify" viewBox="0 0 375 374.999991" height="500" preserveAspectRatio="xMidYMid meet" version="1.0"><defs><g/><clipPath id="ba20fb47fb"><path d="M 41 223 L 328 223 L 328 288 L 41 288 Z M 41 223 " clip-rule="nonzero"/></clipPath><clipPath id="ca9fd72e2a"><path d="M 41.753906 223.660156 L 327.226562 223.570312 L 327.246094 287.171875 L 41.773438 287.265625 Z M 41.753906 223.660156 " clip-rule="nonzero"/></clipPath><clipPath id="3abf827855"><path d="M 0.519531 0.441406 L 286.359375 0.441406 L 286.359375 64.28125 L 0.519531 64.28125 Z M 0.519531 0.441406 " clip-rule="nonzero"/></clipPath><clipPath id="3715599c3d"><path d="M 0.753906 0.660156 L 286.226562 0.570312 L 286.246094 64.171875 L 0.773438 64.265625 Z M 0.753906 0.660156 " clip-rule="nonzero"/></clipPath><clipPath id="1474a7d678"><path d="M 0.753906 0.660156 L 286.226562 0.570312 L 286.246094 64.171875 L 0.773438 64.265625 Z M 0.753906 0.660156 " clip-rule="nonzero"/></clipPath><clipPath id="4d0863cbda"><path d="M 0.753906 0.660156 L 286.222656 0.570312 L 286.246094 64.171875 L 0.773438 64.265625 Z M 0.753906 0.660156 " clip-rule="nonzero"/></clipPath><linearGradient x1="223.027737" gradientTransform="matrix(0.248453, -0.0000785777, 0.0000785777, 0.248453, 0.753615, 0.659976)" y1="479.468253" x2="925.966145" gradientUnits="userSpaceOnUse" y2="-223.470125" id="584f28ec72"><stop stop-opacity="1" stop-color="rgb(23.139954%, 50.979614%, 96.469116%)" offset="0"/><stop stop-opacity="1" stop-color="rgb(23.419189%, 50.956726%, 96.139526%)" offset="0.00390625"/><stop stop-opacity="1" stop-color="rgb(23.698425%, 50.935364%, 95.809937%)" offset="0.0078125"/><stop stop-opacity="1" stop-color="rgb(23.989868%, 50.912476%, 95.466614%)" offset="0.0117188"/><stop stop-opacity="1" stop-color="rgb(24.281311%, 50.889587%, 95.123291%)" offset="0.015625"/><stop stop-opacity="1" stop-color="rgb(24.571228%, 50.866699%, 94.779968%)" offset="0.0195313"/><stop stop-opacity="1" stop-color="rgb(24.862671%, 50.843811%, 94.436646%)" offset="0.0234375"/><stop stop-opacity="1" stop-color="rgb(25.154114%, 50.819397%, 94.093323%)" offset="0.0273438"/><stop stop-opacity="1" stop-color="rgb(25.445557%, 50.796509%, 93.75%)" offset="0.03125"/><stop stop-opacity="1" stop-color="rgb(25.737%, 50.773621%, 93.406677%)" offset="0.0351562"/><stop stop-opacity="1" stop-color="rgb(26.028442%, 50.750732%, 93.063354%)" offset="0.0390625"/><stop stop-opacity="1" stop-color="rgb(26.319885%, 50.727844%, 92.720032%)" offset="0.0429688"/><stop stop-opacity="1" stop-color="rgb(26.611328%, 50.704956%, 92.376709%)" offset="0.046875"/><stop stop-opacity="1" stop-color="rgb(26.901245%, 50.682068%, 92.033386%)" offset="0.0507812"/><stop stop-opacity="1" stop-color="rgb(27.192688%, 50.65918%, 91.690063%)" offset="0.0546875"/><stop stop-opacity="1" stop-color="rgb(27.484131%, 50.636292%, 91.346741%)" offset="0.0585938"/><stop stop-opacity="1" stop-color="rgb(27.775574%, 50.613403%, 91.003418%)" offset="0.0625"/><stop stop-opacity="1" stop-color="rgb(28.067017%, 50.590515%, 90.660095%)" offset="0.0664062"/><stop stop-opacity="1" stop-color="rgb(28.358459%, 50.567627%, 90.316772%)" offset="0.0703125"/><stop stop-opacity="1" stop-color="rgb(28.649902%, 50.544739%, 89.97345%)" offset="0.0742188"/><stop stop-opacity="1" stop-color="rgb(28.941345%, 50.521851%, 89.630127%)" offset="0.078125"/><stop stop-opacity="1" stop-color="rgb(29.231262%, 50.498962%, 89.286804%)" offset="0.0820313"/><stop stop-opacity="1" stop-color="rgb(29.522705%, 50.476074%, 88.943481%)" offset="0.0859375"/><stop stop-opacity="1" stop-color="rgb(29.814148%, 50.45166%, 88.600159%)" offset="0.0898438"/><stop stop-opacity="1" stop-color="rgb(30.105591%, 50.428772%, 88.256836%)" offset="0.09375"/><stop stop-opacity="1" stop-color="rgb(30.397034%, 50.405884%, 87.913513%)" offset="0.0976563"/><stop stop-opacity="1" stop-color="rgb(30.688477%, 50.382996%, 87.57019%)" offset="0.101563"/><stop stop-opacity="1" stop-color="rgb(30.978394%, 50.360107%, 87.226868%)" offset="0.105469"/><stop stop-opacity="1" stop-color="rgb(31.269836%, 50.337219%, 86.883545%)" offset="0.109375"/><stop stop-opacity="1" stop-color="rgb(31.561279%, 50.314331%, 86.540222%)" offset="0.113281"/><stop stop-opacity="1" stop-color="rgb(31.852722%, 50.291443%, 86.196899%)" offset="0.117188"/><stop stop-opacity="1" stop-color="rgb(32.144165%, 50.268555%, 85.853577%)" offset="0.121094"/><stop stop-opacity="1" stop-color="rgb(32.435608%, 50.245667%, 85.510254%)" offset="0.125"/><stop stop-opacity="1" stop-color="rgb(32.727051%, 50.222778%, 85.166931%)" offset="0.128906"/><stop stop-opacity="1" stop-color="rgb(33.018494%, 50.19989%, 84.823608%)" offset="0.132812"/><stop stop-opacity="1" stop-color="rgb(33.308411%, 50.177002%, 84.480286%)" offset="0.136719"/><stop stop-opacity="1" stop-color="rgb(33.599854%, 50.154114%, 84.136963%)" offset="0.140625"/><stop stop-opacity="1" stop-color="rgb(33.891296%, 50.131226%, 83.79364%)" offset="0.144531"/><stop stop-opacity="1" stop-color="rgb(34.182739%, 50.108337%, 83.450317%)" offset="0.148438"/><stop stop-opacity="1" stop-color="rgb(34.474182%, 50.083923%, 83.106995%)" offset="0.152344"/><stop stop-opacity="1" stop-color="rgb(34.765625%, 50.061035%, 82.763672%)" offset="0.15625"/><stop stop-opacity="1" stop-color="rgb(35.057068%, 50.038147%, 82.420349%)" offset="0.160156"/><stop stop-opacity="1" stop-color="rgb(35.348511%, 50.015259%, 82.077026%)" offset="0.164062"/><stop stop-opacity="1" stop-color="rgb(35.638428%, 49.992371%, 81.733704%)" offset="0.167969"/><stop stop-opacity="1" stop-color="rgb(35.929871%, 49.969482%, 81.390381%)" offset="0.171875"/><stop stop-opacity="1" stop-color="rgb(36.221313%, 49.946594%, 81.047058%)" offset="0.175781"/><stop stop-opacity="1" stop-color="rgb(36.512756%, 49.923706%, 80.703735%)" offset="0.179688"/><stop stop-opacity="1" stop-color="rgb(36.804199%, 49.900818%, 80.360413%)" offset="0.183594"/><stop stop-opacity="1" stop-color="rgb(37.095642%, 49.87793%, 80.01709%)" offset="0.1875"/><stop stop-opacity="1" stop-color="rgb(37.387085%, 49.855042%, 79.673767%)" offset="0.191406"/><stop stop-opacity="1" stop-color="rgb(37.678528%, 49.832153%, 79.330444%)" offset="0.195312"/><stop stop-opacity="1" stop-color="rgb(37.968445%, 49.809265%, 78.987122%)" offset="0.199219"/><stop stop-opacity="1" stop-color="rgb(38.259888%, 49.786377%, 78.643799%)" offset="0.203125"/><stop stop-opacity="1" stop-color="rgb(38.551331%, 49.763489%, 78.29895%)" offset="0.207031"/><stop stop-opacity="1" stop-color="rgb(38.842773%, 49.740601%, 77.955627%)" offset="0.210938"/><stop stop-opacity="1" stop-color="rgb(39.134216%, 49.716187%, 77.612305%)" offset="0.214844"/><stop stop-opacity="1" stop-color="rgb(39.425659%, 49.693298%, 77.268982%)" offset="0.21875"/><stop stop-opacity="1" stop-color="rgb(39.715576%, 49.67041%, 76.925659%)" offset="0.222656"/><stop stop-opacity="1" stop-color="rgb(40.007019%, 49.647522%, 76.582336%)" offset="0.226562"/><stop stop-opacity="1" stop-color="rgb(40.298462%, 49.624634%, 76.239014%)" offset="0.230469"/><stop stop-opacity="1" stop-color="rgb(40.589905%, 49.601746%, 75.895691%)" offset="0.234375"/><stop stop-opacity="1" stop-color="rgb(40.881348%, 49.578857%, 75.552368%)" offset="0.238281"/><stop stop-opacity="1" stop-color="rgb(41.172791%, 49.555969%, 75.209045%)" offset="0.242188"/><stop stop-opacity="1" stop-color="rgb(41.464233%, 49.533081%, 74.865723%)" offset="0.246094"/><stop stop-opacity="1" stop-color="rgb(41.755676%, 49.510193%, 74.5224%)" offset="0.25"/><stop stop-opacity="1" stop-color="rgb(42.045593%, 49.487305%, 74.179077%)" offset="0.253906"/><stop stop-opacity="1" stop-color="rgb(42.337036%, 49.464417%, 73.835754%)" offset="0.257812"/><stop stop-opacity="1" stop-color="rgb(42.628479%, 49.441528%, 73.492432%)" offset="0.261719"/><stop stop-opacity="1" stop-color="rgb(42.919922%, 49.41864%, 73.149109%)" offset="0.265625"/><stop stop-opacity="1" stop-color="rgb(43.211365%, 49.395752%, 72.805786%)" offset="0.269531"/><stop stop-opacity="1" stop-color="rgb(43.502808%, 49.372864%, 72.462463%)" offset="0.273438"/><stop stop-opacity="1" stop-color="rgb(43.79425%, 49.34845%, 72.119141%)" offset="0.277344"/><stop stop-opacity="1" stop-color="rgb(44.085693%, 49.325562%, 71.775818%)" offset="0.28125"/><stop stop-opacity="1" stop-color="rgb(44.37561%, 49.302673%, 71.432495%)" offset="0.285156"/><stop stop-opacity="1" stop-color="rgb(44.667053%, 49.279785%, 71.089172%)" offset="0.289062"/><stop stop-opacity="1" stop-color="rgb(44.958496%, 49.256897%, 70.74585%)" offset="0.292969"/><stop stop-opacity="1" stop-color="rgb(45.249939%, 49.234009%, 70.402527%)" offset="0.296875"/><stop stop-opacity="1" stop-color="rgb(45.541382%, 49.211121%, 70.059204%)" offset="0.300781"/><stop stop-opacity="1" stop-color="rgb(45.832825%, 49.188232%, 69.715881%)" offset="0.304688"/><stop stop-opacity="1" stop-color="rgb(46.122742%, 49.165344%, 69.372559%)" offset="0.308594"/><stop stop-opacity="1" stop-color="rgb(46.414185%, 49.142456%, 69.029236%)" offset="0.3125"/><stop stop-opacity="1" stop-color="rgb(46.705627%, 49.119568%, 68.685913%)" offset="0.316406"/><stop stop-opacity="1" stop-color="rgb(46.99707%, 49.09668%, 68.34259%)" offset="0.320312"/><stop stop-opacity="1" stop-color="rgb(47.288513%, 49.073792%, 67.999268%)" offset="0.324219"/><stop stop-opacity="1" stop-color="rgb(47.579956%, 49.050903%, 67.655945%)" offset="0.328125"/><stop stop-opacity="1" stop-color="rgb(47.871399%, 49.028015%, 67.312622%)" offset="0.332031"/><stop stop-opacity="1" stop-color="rgb(48.162842%, 49.005127%, 66.969299%)" offset="0.335938"/><stop stop-opacity="1" stop-color="rgb(48.452759%, 48.980713%, 66.625977%)" offset="0.339844"/><stop stop-opacity="1" stop-color="rgb(48.744202%, 48.957825%, 66.282654%)" offset="0.34375"/><stop stop-opacity="1" stop-color="rgb(49.035645%, 48.934937%, 65.939331%)" offset="0.347656"/><stop stop-opacity="1" stop-color="rgb(49.327087%, 48.912048%, 65.596008%)" offset="0.351562"/><stop stop-opacity="1" stop-color="rgb(49.61853%, 48.88916%, 65.252686%)" offset="0.355469"/><stop stop-opacity="1" stop-color="rgb(49.909973%, 48.866272%, 64.909363%)" offset="0.359375"/><stop stop-opacity="1" stop-color="rgb(50.201416%, 48.843384%, 64.56604%)" offset="0.363281"/><stop stop-opacity="1" stop-color="rgb(50.492859%, 48.820496%, 64.222717%)" offset="0.367188"/><stop stop-opacity="1" stop-color="rgb(50.782776%, 48.797607%, 63.879395%)" offset="0.371094"/><stop stop-opacity="1" stop-color="rgb(51.074219%, 48.774719%, 63.536072%)" offset="0.375"/><stop stop-opacity="1" stop-color="rgb(51.365662%, 48.751831%, 63.192749%)" offset="0.378906"/><stop stop-opacity="1" stop-color="rgb(51.657104%, 48.728943%, 62.849426%)" offset="0.382812"/><stop stop-opacity="1" stop-color="rgb(51.948547%, 48.706055%, 62.506104%)" offset="0.386719"/><stop stop-opacity="1" stop-color="rgb(52.23999%, 48.683167%, 62.162781%)" offset="0.390625"/><stop stop-opacity="1" stop-color="rgb(52.531433%, 48.660278%, 61.819458%)" offset="0.394531"/><stop stop-opacity="1" stop-color="rgb(52.822876%, 48.63739%, 61.476135%)" offset="0.398438"/><stop stop-opacity="1" stop-color="rgb(53.112793%, 48.612976%, 61.132812%)" offset="0.402344"/><stop stop-opacity="1" stop-color="rgb(53.404236%, 48.590088%, 60.78949%)" offset="0.40625"/><stop stop-opacity="1" stop-color="rgb(53.695679%, 48.5672%, 60.446167%)" offset="0.410156"/><stop stop-opacity="1" stop-color="rgb(53.987122%, 48.544312%, 60.102844%)" offset="0.414062"/><stop stop-opacity="1" stop-color="rgb(54.278564%, 48.521423%, 59.759521%)" offset="0.417969"/><stop stop-opacity="1" stop-color="rgb(54.570007%, 48.498535%, 59.416199%)" offset="0.421875"/><stop stop-opacity="1" stop-color="rgb(54.859924%, 48.475647%, 59.072876%)" offset="0.425781"/><stop stop-opacity="1" stop-color="rgb(55.151367%, 48.452759%, 58.729553%)" offset="0.429688"/><stop stop-opacity="1" stop-color="rgb(55.44281%, 48.429871%, 58.38623%)" offset="0.433594"/><stop stop-opacity="1" stop-color="rgb(55.734253%, 48.406982%, 58.042908%)" offset="0.4375"/><stop stop-opacity="1" stop-color="rgb(56.025696%, 48.384094%, 57.699585%)" offset="0.441406"/><stop stop-opacity="1" stop-color="rgb(56.317139%, 48.361206%, 57.356262%)" offset="0.445312"/><stop stop-opacity="1" stop-color="rgb(56.608582%, 48.338318%, 57.012939%)" offset="0.449219"/><stop stop-opacity="1" stop-color="rgb(56.900024%, 48.31543%, 56.669617%)" offset="0.453125"/><stop stop-opacity="1" stop-color="rgb(57.189941%, 48.292542%, 56.326294%)" offset="0.457031"/><stop stop-opacity="1" stop-color="rgb(57.481384%, 48.269653%, 55.982971%)" offset="0.460938"/><stop stop-opacity="1" stop-color="rgb(57.772827%, 48.245239%, 55.639648%)" offset="0.464844"/><stop stop-opacity="1" stop-color="rgb(58.06427%, 48.222351%, 55.296326%)" offset="0.46875"/><stop stop-opacity="1" stop-color="rgb(58.355713%, 48.199463%, 54.953003%)" offset="0.472656"/><stop stop-opacity="1" stop-color="rgb(58.647156%, 48.176575%, 54.60968%)" offset="0.476562"/><stop stop-opacity="1" stop-color="rgb(58.938599%, 48.153687%, 54.266357%)" offset="0.480469"/><stop stop-opacity="1" stop-color="rgb(59.230042%, 48.130798%, 53.923035%)" offset="0.484375"/><stop stop-opacity="1" stop-color="rgb(59.519958%, 48.10791%, 53.579712%)" offset="0.488281"/><stop stop-opacity="1" stop-color="rgb(59.811401%, 48.085022%, 53.236389%)" offset="0.492188"/><stop stop-opacity="1" stop-color="rgb(60.102844%, 48.062134%, 52.893066%)" offset="0.496094"/><stop stop-opacity="1" stop-color="rgb(60.394287%, 48.039246%, 52.549744%)" offset="0.5"/><stop stop-opacity="1" stop-color="rgb(60.68573%, 48.016357%, 52.206421%)" offset="0.503906"/><stop stop-opacity="1" stop-color="rgb(60.977173%, 47.993469%, 51.863098%)" offset="0.507812"/><stop stop-opacity="1" stop-color="rgb(61.26709%, 47.970581%, 51.519775%)" offset="0.511719"/><stop stop-opacity="1" stop-color="rgb(61.558533%, 47.947693%, 51.176453%)" offset="0.515625"/><stop stop-opacity="1" stop-color="rgb(61.849976%, 47.924805%, 50.83313%)" offset="0.519531"/><stop stop-opacity="1" stop-color="rgb(62.141418%, 47.901917%, 50.489807%)" offset="0.523438"/><stop stop-opacity="1" stop-color="rgb(62.432861%, 47.877502%, 50.144958%)" offset="0.527344"/><stop stop-opacity="1" stop-color="rgb(62.724304%, 47.854614%, 49.801636%)" offset="0.53125"/><stop stop-opacity="1" stop-color="rgb(63.015747%, 47.831726%, 49.458313%)" offset="0.535156"/><stop stop-opacity="1" stop-color="rgb(63.30719%, 47.808838%, 49.11499%)" offset="0.539062"/><stop stop-opacity="1" stop-color="rgb(63.597107%, 47.78595%, 48.771667%)" offset="0.542969"/><stop stop-opacity="1" stop-color="rgb(63.88855%, 47.763062%, 48.428345%)" offset="0.546875"/><stop stop-opacity="1" stop-color="rgb(64.179993%, 47.740173%, 48.085022%)" offset="0.550781"/><stop stop-opacity="1" stop-color="rgb(64.471436%, 47.717285%, 47.741699%)" offset="0.554687"/><stop stop-opacity="1" stop-color="rgb(64.762878%, 47.694397%, 47.398376%)" offset="0.558594"/><stop stop-opacity="1" stop-color="rgb(65.054321%, 47.671509%, 47.055054%)" offset="0.5625"/><stop stop-opacity="1" stop-color="rgb(65.345764%, 47.648621%, 46.711731%)" offset="0.566406"/><stop stop-opacity="1" stop-color="rgb(65.637207%, 47.625732%, 46.368408%)" offset="0.570313"/><stop stop-opacity="1" stop-color="rgb(65.927124%, 47.602844%, 46.025085%)" offset="0.574219"/><stop stop-opacity="1" stop-color="rgb(66.218567%, 47.579956%, 45.681763%)" offset="0.578125"/><stop stop-opacity="1" stop-color="rgb(66.51001%, 47.557068%, 45.33844%)" offset="0.582031"/><stop stop-opacity="1" stop-color="rgb(66.801453%, 47.53418%, 44.995117%)" offset="0.585938"/><stop stop-opacity="1" stop-color="rgb(67.092896%, 47.509766%, 44.651794%)" offset="0.589844"/><stop stop-opacity="1" stop-color="rgb(67.384338%, 47.486877%, 44.308472%)" offset="0.59375"/><stop stop-opacity="1" stop-color="rgb(67.675781%, 47.463989%, 43.965149%)" offset="0.597656"/><stop stop-opacity="1" stop-color="rgb(67.967224%, 47.441101%, 43.621826%)" offset="0.601562"/><stop stop-opacity="1" stop-color="rgb(68.257141%, 47.418213%, 43.278503%)" offset="0.605469"/><stop stop-opacity="1" stop-color="rgb(68.548584%, 47.395325%, 42.935181%)" offset="0.609375"/><stop stop-opacity="1" stop-color="rgb(68.840027%, 47.372437%, 42.591858%)" offset="0.613281"/><stop stop-opacity="1" stop-color="rgb(69.13147%, 47.349548%, 42.248535%)" offset="0.617188"/><stop stop-opacity="1" stop-color="rgb(69.422913%, 47.32666%, 41.905212%)" offset="0.621094"/><stop stop-opacity="1" stop-color="rgb(69.714355%, 47.303772%, 41.56189%)" offset="0.625"/><stop stop-opacity="1" stop-color="rgb(70.004272%, 47.280884%, 41.218567%)" offset="0.628906"/><stop stop-opacity="1" stop-color="rgb(70.295715%, 47.257996%, 40.875244%)" offset="0.632812"/><stop stop-opacity="1" stop-color="rgb(70.587158%, 47.235107%, 40.531921%)" offset="0.636719"/><stop stop-opacity="1" stop-color="rgb(70.878601%, 47.212219%, 40.188599%)" offset="0.640625"/><stop stop-opacity="1" stop-color="rgb(71.170044%, 47.189331%, 39.845276%)" offset="0.644531"/><stop stop-opacity="1" stop-color="rgb(71.461487%, 47.166443%, 39.501953%)" offset="0.648438"/><stop stop-opacity="1" stop-color="rgb(71.75293%, 47.142029%, 39.15863%)" offset="0.652344"/><stop stop-opacity="1" stop-color="rgb(72.044373%, 47.119141%, 38.815308%)" offset="0.65625"/><stop stop-opacity="1" stop-color="rgb(72.33429%, 47.096252%, 38.471985%)" offset="0.660156"/><stop stop-opacity="1" stop-color="rgb(72.625732%, 47.073364%, 38.128662%)" offset="0.664062"/><stop stop-opacity="1" stop-color="rgb(72.917175%, 47.050476%, 37.785339%)" offset="0.667969"/><stop stop-opacity="1" stop-color="rgb(73.208618%, 47.027588%, 37.442017%)" offset="0.671875"/><stop stop-opacity="1" stop-color="rgb(73.500061%, 47.0047%, 37.098694%)" offset="0.675781"/><stop stop-opacity="1" stop-color="rgb(73.791504%, 46.981812%, 36.755371%)" offset="0.679687"/><stop stop-opacity="1" stop-color="rgb(74.082947%, 46.958923%, 36.412048%)" offset="0.683594"/><stop stop-opacity="1" stop-color="rgb(74.37439%, 46.936035%, 36.068726%)" offset="0.6875"/><stop stop-opacity="1" stop-color="rgb(74.664307%, 46.913147%, 35.725403%)" offset="0.691406"/><stop stop-opacity="1" stop-color="rgb(74.95575%, 46.890259%, 35.38208%)" offset="0.695313"/><stop stop-opacity="1" stop-color="rgb(75.247192%, 46.867371%, 35.038757%)" offset="0.699219"/><stop stop-opacity="1" stop-color="rgb(75.538635%, 46.844482%, 34.695435%)" offset="0.703125"/><stop stop-opacity="1" stop-color="rgb(75.830078%, 46.821594%, 34.352112%)" offset="0.707031"/><stop stop-opacity="1" stop-color="rgb(76.121521%, 46.798706%, 34.008789%)" offset="0.710938"/><stop stop-opacity="1" stop-color="rgb(76.412964%, 46.775818%, 33.665466%)" offset="0.714844"/><stop stop-opacity="1" stop-color="rgb(76.704407%, 46.75293%, 33.322144%)" offset="0.71875"/><stop stop-opacity="1" stop-color="rgb(76.994324%, 46.728516%, 32.978821%)" offset="0.722656"/><stop stop-opacity="1" stop-color="rgb(77.285767%, 46.705627%, 32.635498%)" offset="0.726562"/><stop stop-opacity="1" stop-color="rgb(77.577209%, 46.682739%, 32.292175%)" offset="0.730469"/><stop stop-opacity="1" stop-color="rgb(77.868652%, 46.659851%, 31.948853%)" offset="0.734375"/><stop stop-opacity="1" stop-color="rgb(78.160095%, 46.636963%, 31.60553%)" offset="0.738281"/><stop stop-opacity="1" stop-color="rgb(78.451538%, 46.614075%, 31.262207%)" offset="0.742188"/><stop stop-opacity="1" stop-color="rgb(78.741455%, 46.591187%, 30.918884%)" offset="0.746094"/><stop stop-opacity="1" stop-color="rgb(79.032898%, 46.568298%, 30.575562%)" offset="0.75"/><stop stop-opacity="1" stop-color="rgb(79.324341%, 46.54541%, 30.232239%)" offset="0.753906"/><stop stop-opacity="1" stop-color="rgb(79.615784%, 46.522522%, 29.888916%)" offset="0.757812"/><stop stop-opacity="1" stop-color="rgb(79.907227%, 46.499634%, 29.545593%)" offset="0.761719"/><stop stop-opacity="1" stop-color="rgb(80.198669%, 46.476746%, 29.202271%)" offset="0.765625"/><stop stop-opacity="1" stop-color="rgb(80.490112%, 46.453857%, 28.858948%)" offset="0.769531"/><stop stop-opacity="1" stop-color="rgb(80.781555%, 46.430969%, 28.515625%)" offset="0.773438"/><stop stop-opacity="1" stop-color="rgb(81.071472%, 46.408081%, 28.172302%)" offset="0.777344"/><stop stop-opacity="1" stop-color="rgb(81.362915%, 46.385193%, 27.828979%)" offset="0.78125"/><stop stop-opacity="1" stop-color="rgb(81.654358%, 46.360779%, 27.485657%)" offset="0.785156"/><stop stop-opacity="1" stop-color="rgb(81.945801%, 46.337891%, 27.142334%)" offset="0.789062"/><stop stop-opacity="1" stop-color="rgb(82.237244%, 46.315002%, 26.799011%)" offset="0.792969"/><stop stop-opacity="1" stop-color="rgb(82.528687%, 46.292114%, 26.455688%)" offset="0.796875"/><stop stop-opacity="1" stop-color="rgb(82.820129%, 46.269226%, 26.112366%)" offset="0.800781"/><stop stop-opacity="1" stop-color="rgb(83.111572%, 46.246338%, 25.769043%)" offset="0.804687"/><stop stop-opacity="1" stop-color="rgb(83.401489%, 46.22345%, 25.42572%)" offset="0.808594"/><stop stop-opacity="1" stop-color="rgb(83.692932%, 46.200562%, 25.082397%)" offset="0.8125"/><stop stop-opacity="1" stop-color="rgb(83.984375%, 46.177673%, 24.739075%)" offset="0.816406"/><stop stop-opacity="1" stop-color="rgb(84.275818%, 46.154785%, 24.395752%)" offset="0.820313"/><stop stop-opacity="1" stop-color="rgb(84.567261%, 46.131897%, 24.052429%)" offset="0.824219"/><stop stop-opacity="1" stop-color="rgb(84.858704%, 46.109009%, 23.709106%)" offset="0.828125"/><stop stop-opacity="1" stop-color="rgb(85.148621%, 46.086121%, 23.365784%)" offset="0.832031"/><stop stop-opacity="1" stop-color="rgb(85.440063%, 46.063232%, 23.022461%)" offset="0.835938"/><stop stop-opacity="1" stop-color="rgb(85.731506%, 46.040344%, 22.679138%)" offset="0.839844"/><stop stop-opacity="1" stop-color="rgb(86.022949%, 46.017456%, 22.335815%)" offset="0.84375"/><stop stop-opacity="1" stop-color="rgb(86.314392%, 45.993042%, 21.992493%)" offset="0.847656"/><stop stop-opacity="1" stop-color="rgb(86.605835%, 45.970154%, 21.64917%)" offset="0.851562"/><stop stop-opacity="1" stop-color="rgb(86.897278%, 45.947266%, 21.304321%)" offset="0.855469"/><stop stop-opacity="1" stop-color="rgb(87.188721%, 45.924377%, 20.960999%)" offset="0.859375"/><stop stop-opacity="1" stop-color="rgb(87.478638%, 45.901489%, 20.617676%)" offset="0.863281"/><stop stop-opacity="1" stop-color="rgb(87.770081%, 45.878601%, 20.274353%)" offset="0.867188"/><stop stop-opacity="1" stop-color="rgb(88.061523%, 45.855713%, 19.93103%)" offset="0.871094"/><stop stop-opacity="1" stop-color="rgb(88.352966%, 45.832825%, 19.587708%)" offset="0.875"/><stop stop-opacity="1" stop-color="rgb(88.644409%, 45.809937%, 19.244385%)" offset="0.878906"/><stop stop-opacity="1" stop-color="rgb(88.935852%, 45.787048%, 18.901062%)" offset="0.882812"/><stop stop-opacity="1" stop-color="rgb(89.227295%, 45.76416%, 18.557739%)" offset="0.886719"/><stop stop-opacity="1" stop-color="rgb(89.518738%, 45.741272%, 18.214417%)" offset="0.890625"/><stop stop-opacity="1" stop-color="rgb(89.808655%, 45.718384%, 17.871094%)" offset="0.894531"/><stop stop-opacity="1" stop-color="rgb(90.100098%, 45.695496%, 17.527771%)" offset="0.898438"/><stop stop-opacity="1" stop-color="rgb(90.391541%, 45.672607%, 17.184448%)" offset="0.902344"/><stop stop-opacity="1" stop-color="rgb(90.682983%, 45.649719%, 16.841125%)" offset="0.90625"/><stop stop-opacity="1" stop-color="rgb(90.974426%, 45.625305%, 16.497803%)" offset="0.910156"/><stop stop-opacity="1" stop-color="rgb(91.265869%, 45.602417%, 16.15448%)" offset="0.914062"/><stop stop-opacity="1" stop-color="rgb(91.557312%, 45.579529%, 15.811157%)" offset="0.917969"/><stop stop-opacity="1" stop-color="rgb(91.848755%, 45.556641%, 15.467834%)" offset="0.921875"/><stop stop-opacity="1" stop-color="rgb(92.138672%, 45.533752%, 15.124512%)" offset="0.925781"/><stop stop-opacity="1" stop-color="rgb(92.430115%, 45.510864%, 14.781189%)" offset="0.929687"/><stop stop-opacity="1" stop-color="rgb(92.721558%, 45.487976%, 14.437866%)" offset="0.933594"/><stop stop-opacity="1" stop-color="rgb(93.013%, 45.465088%, 14.094543%)" offset="0.9375"/><stop stop-opacity="1" stop-color="rgb(93.304443%, 45.4422%, 13.751221%)" offset="0.941406"/><stop stop-opacity="1" stop-color="rgb(93.595886%, 45.419312%, 13.407898%)" offset="0.945313"/><stop stop-opacity="1" stop-color="rgb(93.885803%, 45.396423%, 13.064575%)" offset="0.949219"/><stop stop-opacity="1" stop-color="rgb(94.177246%, 45.373535%, 12.721252%)" offset="0.953125"/><stop stop-opacity="1" stop-color="rgb(94.468689%, 45.350647%, 12.37793%)" offset="0.957031"/><stop stop-opacity="1" stop-color="rgb(94.760132%, 45.327759%, 12.034607%)" offset="0.960938"/><stop stop-opacity="1" stop-color="rgb(95.051575%, 45.304871%, 11.691284%)" offset="0.964844"/><stop stop-opacity="1" stop-color="rgb(95.343018%, 45.281982%, 11.347961%)" offset="0.96875"/><stop stop-opacity="1" stop-color="rgb(95.63446%, 45.257568%, 11.004639%)" offset="0.972656"/><stop stop-opacity="1" stop-color="rgb(95.925903%, 45.23468%, 10.661316%)" offset="0.976562"/><stop stop-opacity="1" stop-color="rgb(96.21582%, 45.211792%, 10.317993%)" offset="0.980469"/><stop stop-opacity="1" stop-color="rgb(96.507263%, 45.188904%, 9.97467%)" offset="0.984375"/><stop stop-opacity="1" stop-color="rgb(96.798706%, 45.166016%, 9.631348%)" offset="0.988281"/><stop stop-opacity="1" stop-color="rgb(97.090149%, 45.143127%, 9.288025%)" offset="0.992188"/><stop stop-opacity="1" stop-color="rgb(97.369385%, 45.120239%, 8.958435%)" offset="0.996094"/><stop stop-opacity="1" stop-color="rgb(97.648621%, 45.098877%, 8.628845%)" offset="1"/></linearGradient><clipPath id="8ec6910e7e"><rect x="0" width="287" y="0" height="65"/></clipPath><clipPath id="63bd5c64c0"><rect x="0" width="269" y="0" height="70"/></clipPath></defs><g fill="#1e1e1e" fill-opacity="1"><g transform="translate(2.936139, 256.996082)"><g><path d="M 46.75 -65.25 C 46.75 -68.25 45.6875 -71.117188 43.5625 -73.859375 C 41.445312 -76.597656 38.738281 -79.429688 35.4375 -82.359375 C 32.132812 -85.296875 28.582031 -88.476562 24.78125 -91.90625 C 20.976562 -95.332031 17.421875 -99.257812 14.109375 -103.6875 C 10.804688 -108.113281 8.097656 -113.253906 5.984375 -119.109375 C 3.867188 -124.960938 2.8125 -131.691406 2.8125 -139.296875 C 2.8125 -149.773438 4.863281 -158.535156 8.96875 -165.578125 C 13.082031 -172.617188 18.410156 -177.945312 24.953125 -181.5625 C 31.503906 -185.175781 38.394531 -186.984375 45.625 -186.984375 L 103.03125 -186.984375 L 103.03125 -130.890625 L 88.0625 -130.890625 C 85.570312 -130.890625 82.957031 -130.765625 80.21875 -130.515625 C 77.476562 -130.265625 75.171875 -129.453125 73.296875 -128.078125 C 71.429688 -126.710938 70.5 -124.285156 70.5 -120.796875 C 70.5 -117.796875 71.492188 -115.207031 73.484375 -113.03125 C 75.484375 -110.851562 78.070312 -108.734375 81.25 -106.671875 C 84.425781 -104.617188 87.789062 -102.28125 91.34375 -99.65625 C 94.894531 -97.039062 98.257812 -93.863281 101.4375 -90.125 C 104.613281 -86.382812 107.195312 -81.707031 109.1875 -76.09375 C 111.1875 -70.488281 112.1875 -63.570312 112.1875 -55.34375 C 112.1875 -44.625 110.128906 -35.085938 106.015625 -26.734375 C 101.898438 -18.378906 96.039062 -11.832031 88.4375 -7.09375 C 80.832031 -2.363281 71.796875 0 61.328125 0 L 5.421875 0 L 5.421875 -56.09375 L 26.921875 -56.09375 C 33.523438 -56.09375 38.476562 -56.742188 41.78125 -58.046875 C 45.09375 -59.359375 46.75 -61.757812 46.75 -65.25 Z M 46.75 -65.25 "/></g></g></g><g fill="#1e1e1e" fill-opacity="1"><g transform="translate(117.931481, 256.996082)"><g><path d="M 113.6875 0 L 2.8125 0 L 2.8125 -186.796875 L 113.6875 -186.796875 L 113.6875 -130.703125 L 58.90625 -130.703125 L 58.90625 -121.359375 L 102.46875 -121.359375 L 102.46875 -65.25 L 58.90625 -65.25 L 58.90625 -56.09375 L 113.6875 -56.09375 Z M 113.6875 0 "/></g></g></g><g fill="#1e1e1e" fill-opacity="1"><g transform="translate(234.42268, 256.996082)"><g><path d="M 68.8125 2.8125 C 55.84375 2.8125 45.085938 0.503906 36.546875 -4.109375 C 28.015625 -8.722656 21.285156 -15.269531 16.359375 -23.75 C 11.429688 -32.226562 7.941406 -42.382812 5.890625 -54.21875 C 3.835938 -66.0625 2.8125 -79.210938 2.8125 -93.671875 C 2.8125 -108.140625 3.835938 -121.226562 5.890625 -132.9375 C 7.941406 -144.65625 11.429688 -154.785156 16.359375 -163.328125 C 21.285156 -171.867188 28.015625 -178.414062 36.546875 -182.96875 C 45.085938 -187.519531 55.84375 -189.796875 68.8125 -189.796875 C 81.769531 -189.796875 92.519531 -187.519531 101.0625 -182.96875 C 109.601562 -178.414062 116.332031 -171.867188 121.25 -163.328125 C 126.175781 -154.785156 129.664062 -144.65625 131.71875 -132.9375 C 133.78125 -121.226562 134.8125 -108.140625 134.8125 -93.671875 C 134.8125 -79.210938 133.78125 -66.0625 131.71875 -54.21875 C 129.664062 -42.382812 126.175781 -32.226562 121.25 -23.75 C 116.332031 -15.269531 109.601562 -8.722656 101.0625 -4.109375 C 92.519531 0.503906 81.769531 2.8125 68.8125 2.8125 Z M 68.8125 -132.953125 C 64.945312 -132.828125 62.328125 -129.144531 60.953125 -121.90625 C 59.585938 -114.675781 58.90625 -104.582031 58.90625 -91.625 C 58.90625 -80.28125 59.585938 -71.144531 60.953125 -64.21875 C 62.328125 -57.300781 64.945312 -53.84375 68.8125 -53.84375 C 72.675781 -53.84375 75.351562 -57.300781 76.84375 -64.21875 C 78.34375 -71.144531 79.03125 -80.28125 78.90625 -91.625 C 78.78125 -104.582031 78.03125 -114.707031 76.65625 -122 C 75.289062 -129.300781 72.675781 -132.953125 68.8125 -132.953125 Z M 68.8125 -132.953125 "/></g></g></g><g clip-path="url(#ba20fb47fb)"><g clip-path="url(#ca9fd72e2a)"><g transform="matrix(1, 0, 0, 1, 41, 223)"><g clip-path="url(#8ec6910e7e)"><g clip-path="url(#3abf827855)"><g clip-path="url(#3715599c3d)"><g clip-path="url(#1474a7d678)"><g clip-path="url(#4d0863cbda)"><path fill="url(#584f28ec72)" d="M 0.734375 0.570312 L 0.753906 64.355469 L 286.265625 64.265625 L 286.246094 0.480469 Z M 0.734375 0.570312 " fill-rule="nonzero"/></g></g></g></g></g></g></g></g><g transform="matrix(1, 0, 0, 1, 50, 218)"><g clip-path="url(#63bd5c64c0)"><g fill="#1e1e1e" fill-opacity="1"><g transform="translate(0.686886, 53.498358)"><g><path d="M 20.328125 0.78125 C 16.648438 0.78125 13.40625 0.0195312 10.59375 -1.5 C 7.789062 -3.019531 5.613281 -5.15625 4.0625 -7.90625 C 2.519531 -10.664062 1.75 -13.835938 1.75 -17.421875 C 1.75 -20.742188 2.519531 -23.789062 4.0625 -26.5625 C 5.601562 -29.34375 7.785156 -31.546875 10.609375 -33.171875 C 13.429688 -34.804688 16.664062 -35.625 20.3125 -35.625 C 23.957031 -35.632812 27.191406 -34.820312 30.015625 -33.1875 C 32.835938 -31.5625 35.023438 -29.359375 36.578125 -26.578125 C 38.140625 -23.804688 38.921875 -20.757812 38.921875 -17.4375 C 38.921875 -13.851562 38.144531 -10.679688 36.59375 -7.921875 C 35.039062 -5.171875 32.859375 -3.035156 30.046875 -1.515625 C 27.242188 0.00390625 24.003906 0.769531 20.328125 0.78125 Z M 20.328125 -8.859375 C 22.003906 -8.859375 23.457031 -9.226562 24.6875 -9.96875 C 25.914062 -10.71875 26.859375 -11.742188 27.515625 -13.046875 C 28.179688 -14.359375 28.515625 -15.820312 28.515625 -17.4375 C 28.515625 -19.019531 28.179688 -20.460938 27.515625 -21.765625 C 26.859375 -23.078125 25.910156 -24.101562 24.671875 -24.84375 C 23.441406 -25.582031 21.988281 -25.953125 20.3125 -25.953125 C 18.632812 -25.953125 17.1875 -25.578125 15.96875 -24.828125 C 14.75 -24.085938 13.804688 -23.0625 13.140625 -21.75 C 12.484375 -20.445312 12.15625 -19.003906 12.15625 -17.421875 C 12.15625 -15.804688 12.484375 -14.34375 13.140625 -13.03125 C 13.804688 -11.726562 14.75 -10.707031 15.96875 -9.96875 C 17.195312 -9.226562 18.648438 -8.859375 20.328125 -8.859375 Z M 20.328125 -8.859375 "/></g></g></g><g fill="#1e1e1e" fill-opacity="1"><g transform="translate(41.340527, 53.4855)"><g><path d="M 15.953125 -34.75 C 19.085938 -34.75 21.691406 -34.210938 23.765625 -33.140625 C 25.847656 -32.066406 27.390625 -30.59375 28.390625 -28.71875 C 29.398438 -26.84375 29.910156 -24.695312 29.921875 -22.28125 C 29.921875 -20.050781 29.398438 -17.992188 28.359375 -16.109375 C 27.328125 -14.222656 25.78125 -12.703125 23.71875 -11.546875 C 21.65625 -10.398438 19.171875 -9.828125 16.265625 -9.828125 L 13.40625 -9.828125 L 13.40625 0 L 3.484375 0 L 3.46875 -34.75 Z M 15.046875 -18.734375 C 18.054688 -18.734375 19.5625 -19.910156 19.5625 -22.265625 C 19.5625 -23.429688 19.15625 -24.316406 18.34375 -24.921875 C 17.53125 -25.535156 16.332031 -25.84375 14.75 -25.84375 L 13.390625 -25.84375 L 13.40625 -18.734375 Z M 15.046875 -18.734375 "/></g></g></g><g fill="#1e1e1e" fill-opacity="1"><g transform="translate(72.217939, 53.475735)"><g><path d="M 7.40625 -25.078125 L 0.234375 -25.078125 L 0.21875 -34.75 L 24.421875 -34.75 L 24.4375 -25.078125 L 17.28125 -25.078125 L 17.28125 0 L 7.40625 0 Z M 7.40625 -25.078125 "/></g></g></g><g fill="#1e1e1e" fill-opacity="1"><g transform="translate(96.900509, 53.467928)"><g><path d="M 3.46875 -34.75 L 13.390625 -34.75 L 13.40625 0 L 3.484375 0 Z M 3.46875 -34.75 "/></g></g></g><g fill="#1e1e1e" fill-opacity="1"><g transform="translate(113.791126, 53.462586)"><g><path d="M 44.78125 -0.015625 L 35.4375 -0.015625 L 33.6875 -16.90625 C 33.53125 -18.613281 33.367188 -20.613281 33.203125 -22.90625 L 32.96875 -21.75 C 32.507812 -19.582031 32.15625 -17.96875 31.90625 -16.90625 L 27.453125 -0.015625 L 17.625 0 L 13.609375 -16.890625 C 13.285156 -18.148438 12.863281 -20.265625 12.34375 -23.234375 C 12.25 -20.429688 12.117188 -18.316406 11.953125 -16.890625 L 10.546875 0 L 1.203125 0 L 5.0625 -34.75 L 17.796875 -34.75 L 21.78125 -16.359375 L 22.796875 -11.515625 C 23.148438 -13.585938 23.472656 -15.203125 23.765625 -16.359375 L 28.40625 -34.765625 L 40.890625 -34.765625 Z M 44.78125 -0.015625 "/></g></g></g><g fill="#1e1e1e" fill-opacity="1"><g transform="translate(159.768457, 53.448045)"><g><path d="M 3.46875 -34.75 L 13.390625 -34.75 L 13.40625 0 L 3.484375 0 Z M 3.46875 -34.75 "/></g></g></g><g fill="#1e1e1e" fill-opacity="1"><g transform="translate(176.659074, 53.442703)"><g><path d="M 11.90625 -25.359375 L 1.75 -25.359375 L 1.734375 -34.75 L 26.359375 -34.765625 L 15.734375 -9.390625 L 25.609375 -9.40625 L 25.609375 -0.015625 L 1.203125 0 Z M 11.90625 -25.359375 "/></g></g></g><g fill="#1e1e1e" fill-opacity="1"><g transform="translate(203.761496, 53.434132)"><g><path d="M 3.46875 -34.75 L 24.421875 -34.75 L 24.421875 -25.65625 L 13.34375 -25.65625 L 13.359375 -21.921875 L 24.4375 -21.921875 L 24.4375 -13.21875 L 13.359375 -13.21875 L 13.359375 -9.203125 L 24.4375 -9.203125 L 24.4375 0 L 3.484375 0 Z M 3.46875 -34.75 "/></g></g></g><g fill="#1e1e1e" fill-opacity="1"><g transform="translate(231.541486, 53.425346)"><g><path d="M 15.375 -34.75 C 19.050781 -34.75 22.359375 -34.070312 25.296875 -32.71875 C 28.234375 -31.375 30.5625 -29.367188 32.28125 -26.703125 C 34 -24.046875 34.859375 -20.796875 34.859375 -16.953125 C 34.859375 -13.566406 34.097656 -10.585938 32.578125 -8.015625 C 31.054688 -5.453125 28.941406 -3.472656 26.234375 -2.078125 C 23.523438 -0.691406 20.457031 0 17.03125 0 L 3.484375 0 L 3.46875 -34.75 Z M 16.890625 -9.203125 C 19.179688 -9.203125 21.019531 -9.878906 22.40625 -11.234375 C 23.800781 -12.585938 24.5 -14.632812 24.5 -17.375 C 24.5 -20.21875 23.726562 -22.289062 22.1875 -23.59375 C 20.65625 -24.90625 18.632812 -25.5625 16.125 -25.5625 L 13.40625 -25.5625 L 13.40625 -9.203125 Z M 16.890625 -9.203125 "/></g></g></g></g></g></svg>